<svg width="20" height="20" viewBox="0 0 20 20" fill="none" xmlns="http://www.w3.org/2000/svg">
<g clip-path="url(#clip0_2_3868)">
<path d="M17.811 13.9C17.3797 14.8578 17.1719 15.286 16.6172 16.1313C15.8406 17.3125 14.7453 18.7875 13.3922 18.7969C12.1875 18.8078 11.8766 18.011 10.2406 18.025C8.60627 18.0328 8.26564 18.8125 7.05939 18.8C5.7047 18.7875 4.66877 17.4594 3.8922 16.2797C1.72033 12.9719 1.49064 9.09377 2.83283 7.03127C3.78283 5.56877 5.28439 4.7094 6.69533 4.7094C8.13283 4.7094 9.03595 5.49846 10.2235 5.49846C11.3766 5.49846 12.0781 4.70784 13.7406 4.70784C14.9969 4.70784 16.325 5.39221 17.275 6.57346C14.1688 8.27659 14.6735 12.7125 17.811 13.9V13.9ZM12.4781 3.38752C13.0828 2.61096 13.5422 1.51565 13.375 0.400024C12.3891 0.467212 11.236 1.0969 10.5625 1.91252C9.95158 2.65627 9.44533 3.7594 9.64221 4.82659C10.7188 4.86096 11.8328 4.21877 12.4781 3.38752H12.4781Z" fill="white"/>
</g>
<defs>
<clipPath id="clip0_2_3868">
<rect width="20" height="20" fill="white"/>
</clipPath>
</defs>
</svg>
