<svg width="20" height="20" viewBox="0 0 20 20" fill="none" xmlns="http://www.w3.org/2000/svg">
<g clip-path="url(#clip0_2_3875)">
<path d="M2.85 0.800049L11.5125 9.40005L13.8875 7.02505L3.3875 0.962549C3.2125 0.860986 3.025 0.804736 2.85 0.800049ZM2.125 1.20005C2.04688 1.33911 2 1.50317 2 1.68755V18.4C2 18.5344 2.02813 18.6547 2.075 18.7625L10.9375 9.96255L2.125 1.20005ZM14.6125 7.43755L12.075 9.96255L14.6125 12.475L17.7125 10.7C18.1531 10.4454 18.2156 10.1219 18.2125 9.95005C18.2078 9.66567 18.0281 9.40005 17.725 9.23755C17.4609 9.09536 15.5 7.95317 14.6125 7.43755ZM11.5125 10.525L2.775 19.1875C2.92031 19.1797 3.07813 19.1485 3.225 19.0625C3.56719 18.8641 10.4875 14.8625 10.4875 14.8625L13.9 12.9L11.5125 10.525Z" fill="white"/>
</g>
<defs>
<clipPath id="clip0_2_3875">
<rect width="20" height="20" fill="white"/>
</clipPath>
</defs>
</svg>
