<svg xmlns="http://www.w3.org/2000/svg" width="18" height="19" viewBox="0 0 18 19" fill="none">
  <path fill-rule="evenodd" clip-rule="evenodd" d="M10 1.07728C9.38121 0.72001 8.61881 0.72001 8.00001 1.07728L2.20578 4.42257C1.58698 4.77984 1.20578 5.44009 1.20578 6.15462V12.8452C1.20578 13.5598 1.58698 14.22 2.20578 14.5773L8.00001 17.9226C8.61881 18.2798 9.38121 18.2798 10 17.9226L15.7942 14.5773C16.413 14.22 16.7942 13.5598 16.7942 12.8452V6.15463C16.7942 5.44009 16.413 4.77984 15.7942 4.42257L10 1.07728ZM3.00001 7.99993L9.00001 4.99993L15 7.99993V11.9999H13.9091V8.54493L9.00001 10.9999L3.00001 7.99993ZM5.18183 12.0899V10.0899L9.00001 11.9999L12.8182 10.0899V12.0899L9.00001 13.9999L5.18183 12.0899Z" fill="url(#paint0_linear_2_3568)" />
  <defs>
    <linearGradient id="paint0_linear_2_3568" x1="9.00001" y1="0.809326" x2="9.00001" y2="18.1905" gradientUnits="userSpaceOnUse">
      <stop stop-color="#FFE600" />
      <stop offset="1" stop-color="#FF8A00" />
    </linearGradient>
  </defs>
</svg>