<svg width="267" height="51" viewBox="0 0 267 51" fill="none" xmlns="http://www.w3.org/2000/svg">
<path d="M0 47.5V25.5C0 13.3516 9.8537 3.5 22.0046 3.5V25.5C22.0046 37.6484 12.1509 47.5 0 47.5Z" fill="#0072EC"/>
<path d="M44 47.5V25.5C44 13.3516 34.1464 3.5 21.9954 3.5V25.5C22.0042 37.6484 31.8492 47.5 44 47.5Z" fill="#0F8FF9"/>
<path d="M61.112 4.27H65.578C67.1913 4.27 68.5113 4.65133 69.538 5.414C70.5647 6.162 71.078 7.31333 71.078 8.868V8.956C71.078 10.54 70.5647 11.7133 69.538 12.476C68.526 13.224 67.206 13.598 65.578 13.598H63.026V20H61.112V4.27ZM65.71 12.08C66.8393 12.08 67.6973 11.816 68.284 11.288C68.8707 10.7453 69.164 9.968 69.164 8.956V8.868C69.164 6.82933 68.0127 5.81 65.71 5.81H63.026V12.08H65.71ZM76.5378 20.198C75.4084 20.198 74.4844 19.9193 73.7658 19.362C73.0618 18.79 72.7098 17.9393 72.7098 16.81C72.7098 16.1793 72.8638 15.6293 73.1718 15.16C73.4944 14.676 73.9344 14.302 74.4918 14.038C75.0491 13.7593 75.6578 13.5613 76.3178 13.444C76.9778 13.312 77.6964 13.246 78.4738 13.246H80.1238V12.41C80.1238 11.486 79.9331 10.826 79.5518 10.43C79.1704 10.0193 78.5398 9.814 77.6598 9.814C76.0758 9.814 75.1958 10.5033 75.0198 11.882H73.1938C73.3111 10.65 73.7878 9.748 74.6238 9.176C75.4744 8.58933 76.5158 8.296 77.7478 8.296C80.5491 8.296 81.9498 9.66733 81.9498 12.41V20H80.1238V18.548C79.2438 19.648 78.0484 20.198 76.5378 20.198ZM76.7138 18.746C77.7111 18.746 78.5251 18.504 79.1558 18.02C79.8011 17.5213 80.1238 16.8393 80.1238 15.974V14.544H78.5398C75.8704 14.544 74.5358 15.2993 74.5358 16.81C74.5358 18.1007 75.2618 18.746 76.7138 18.746ZM90.3106 20.198C88.668 20.198 87.3186 19.67 86.2626 18.614C85.2066 17.5433 84.6786 16.128 84.6786 14.368V14.192C84.6786 12.4613 85.214 11.046 86.2846 9.946C87.37 8.846 88.6973 8.296 90.2666 8.296C91.5866 8.296 92.7086 8.626 93.6326 9.286C94.5566 9.93133 95.0993 10.9433 95.2606 12.322H93.4566C93.1926 10.65 92.1293 9.814 90.2666 9.814C89.196 9.814 88.3086 10.2173 87.6046 11.024C86.9153 11.816 86.5706 12.872 86.5706 14.192V14.368C86.5706 15.7467 86.908 16.81 87.5826 17.558C88.272 18.306 89.1886 18.68 90.3326 18.68C91.198 18.68 91.9386 18.438 92.5546 17.954C93.1853 17.4553 93.5446 16.7587 93.6326 15.864H95.3266C95.2093 17.1253 94.6813 18.1667 93.7426 18.988C92.8186 19.7947 91.6746 20.198 90.3106 20.198ZM102.858 20.198C101.215 20.198 99.8655 19.67 98.8095 18.614C97.7535 17.5433 97.2255 16.128 97.2255 14.368V14.192C97.2255 12.4613 97.7608 11.046 98.8315 9.946C99.9168 8.846 101.244 8.296 102.814 8.296C104.134 8.296 105.256 8.626 106.18 9.286C107.104 9.93133 107.646 10.9433 107.808 12.322H106.004C105.74 10.65 104.676 9.814 102.814 9.814C101.743 9.814 100.856 10.2173 100.152 11.024C99.4622 11.816 99.1175 12.872 99.1175 14.192V14.368C99.1175 15.7467 99.4548 16.81 100.13 17.558C100.819 18.306 101.736 18.68 102.88 18.68C103.745 18.68 104.486 18.438 105.102 17.954C105.732 17.4553 106.092 16.7587 106.18 15.864H107.874C107.756 17.1253 107.228 18.1667 106.29 18.988C105.366 19.7947 104.222 20.198 102.858 20.198ZM117.208 20V14.632C116.416 15.4827 115.316 15.908 113.908 15.908C112.779 15.908 111.855 15.5487 111.136 14.83C110.418 14.0967 110.058 12.982 110.058 11.486V8.494H111.884V11.398C111.884 13.3487 112.72 14.324 114.392 14.324C115.639 14.324 116.578 13.8987 117.208 13.048V8.494H119.034V20H117.208ZM122.723 20V8.494H124.549V17.36L130.423 8.494H132.249V20H130.423V11.134L124.549 20H122.723ZM143.795 10.034H140.077V20H138.251V10.034H134.533V8.494H143.795V10.034ZM156.213 8.494H158.039V20H156.213V8.494ZM146.313 8.494H148.139V12.52H150.185C151.49 12.52 152.546 12.8133 153.353 13.4C154.174 13.9867 154.585 14.9107 154.585 16.172V16.238C154.585 17.4847 154.174 18.4233 153.353 19.054C152.532 19.6847 151.476 20 150.185 20H146.313V8.494ZM150.295 18.548C151.16 18.548 151.784 18.3647 152.165 17.998C152.561 17.6167 152.759 17.03 152.759 16.238V16.172C152.759 15.4387 152.568 14.8887 152.187 14.522C151.806 14.1407 151.175 13.95 150.295 13.95H148.139V18.548H150.295ZM161.739 8.494H165.765C168.463 8.494 169.813 9.46933 169.813 11.42V11.486C169.813 12.0433 169.659 12.5567 169.351 13.026C169.043 13.4807 168.581 13.7887 167.965 13.95C169.563 14.302 170.363 15.1673 170.363 16.546V16.612C170.363 17.7267 169.996 18.57 169.263 19.142C168.544 19.714 167.539 20 166.249 20H161.739V8.494ZM163.565 9.946V13.356H165.765C166.527 13.356 167.07 13.2167 167.393 12.938C167.73 12.6593 167.899 12.2047 167.899 11.574V11.508C167.899 10.9213 167.723 10.518 167.371 10.298C167.033 10.0633 166.491 9.946 165.743 9.946H163.565ZM163.565 14.808V18.548H166.073C166.879 18.548 167.473 18.4087 167.855 18.13C168.251 17.8367 168.449 17.3673 168.449 16.722V16.656C168.449 16.0107 168.251 15.5413 167.855 15.248C167.473 14.9547 166.879 14.808 166.073 14.808H163.565ZM176.397 20.198C175.268 20.198 174.344 19.9193 173.625 19.362C172.921 18.79 172.569 17.9393 172.569 16.81C172.569 16.1793 172.723 15.6293 173.031 15.16C173.354 14.676 173.794 14.302 174.351 14.038C174.908 13.7593 175.517 13.5613 176.177 13.444C176.837 13.312 177.556 13.246 178.333 13.246H179.983V12.41C179.983 11.486 179.792 10.826 179.411 10.43C179.03 10.0193 178.399 9.814 177.519 9.814C175.935 9.814 175.055 10.5033 174.879 11.882H173.053C173.17 10.65 173.647 9.748 174.483 9.176C175.334 8.58933 176.375 8.296 177.607 8.296C180.408 8.296 181.809 9.66733 181.809 12.41V20H179.983V18.548C179.103 19.648 177.908 20.198 176.397 20.198ZM176.573 18.746C177.57 18.746 178.384 18.504 179.015 18.02C179.66 17.5213 179.983 16.8393 179.983 15.974V14.544H178.399C175.73 14.544 174.395 15.2993 174.395 16.81C174.395 18.1007 175.121 18.746 176.573 18.746ZM189.994 6.382C189.202 6.382 188.527 6.11067 187.97 5.568C187.413 5.01067 187.119 4.314 187.09 3.478H188.674C188.762 4.56333 189.202 5.106 189.994 5.106C190.859 5.106 191.343 4.56333 191.446 3.478H192.986C192.927 4.314 192.612 5.01067 192.04 5.568C191.483 6.11067 190.801 6.382 189.994 6.382ZM185.264 20V8.494H187.09V17.36L192.964 8.494H194.79V20H192.964V11.134L187.09 20H185.264ZM206.336 10.034H202.618V20H200.792V10.034H197.074V8.494H206.336V10.034ZM213.264 20.198C211.622 20.198 210.28 19.6627 209.238 18.592C208.212 17.5213 207.698 16.1133 207.698 14.368V14.192C207.698 12.4613 208.197 11.046 209.194 9.946C210.206 8.846 211.504 8.296 213.088 8.296C214.555 8.296 215.78 8.77267 216.762 9.726C217.76 10.6647 218.258 12.0947 218.258 14.016V14.61H209.59C209.678 17.3233 210.91 18.68 213.286 18.68C215.09 18.68 216.11 18.0127 216.344 16.678H218.17C217.965 17.822 217.43 18.6947 216.564 19.296C215.699 19.8973 214.599 20.198 213.264 20.198ZM216.388 13.136C216.227 10.9213 215.127 9.814 213.088 9.814C212.164 9.814 211.402 10.1073 210.8 10.694C210.199 11.2807 209.818 12.0947 209.656 13.136H216.388ZM68.328 40.874H62.674V46H60.848V34.494H62.674V39.334H68.328V34.494H70.154V46H68.328V40.874ZM76.86 46.198C75.7307 46.198 74.8067 45.9193 74.088 45.362C73.384 44.79 73.032 43.9393 73.032 42.81C73.032 42.1793 73.186 41.6293 73.494 41.16C73.8167 40.676 74.2567 40.302 74.814 40.038C75.3714 39.7593 75.98 39.5613 76.64 39.444C77.3 39.312 78.0187 39.246 78.796 39.246H80.446V38.41C80.446 37.486 80.2554 36.826 79.874 36.43C79.4927 36.0193 78.862 35.814 77.982 35.814C76.398 35.814 75.518 36.5033 75.342 37.882H73.516C73.6334 36.65 74.11 35.748 74.946 35.176C75.7967 34.5893 76.838 34.296 78.07 34.296C80.8714 34.296 82.272 35.6673 82.272 38.41V46H80.446V44.548C79.566 45.648 78.3707 46.198 76.86 46.198ZM77.036 44.746C78.0334 44.746 78.8474 44.504 79.478 44.02C80.1234 43.5213 80.446 42.8393 80.446 41.974V40.544H78.862C76.1927 40.544 74.858 41.2993 74.858 42.81C74.858 44.1007 75.584 44.746 77.036 44.746ZM95.4652 30.27H100.107L105.211 46H101.493L100.415 42.502H94.7172L93.6392 46H90.2952L95.4652 30.27ZM95.4872 39.972H99.6452L97.5772 33.174L95.4872 39.972ZM111.452 46.242C110 46.242 108.819 45.7433 107.91 44.746C106.942 43.7047 106.458 42.26 106.458 40.412V40.236C106.458 38.4027 106.942 36.9287 107.91 35.814C108.834 34.758 110.036 34.23 111.518 34.23C113.219 34.23 114.429 34.89 115.148 36.21V29.28H118.316V46H115.148V44.086C114.84 44.702 114.348 45.2153 113.674 45.626C112.999 46.0367 112.258 46.242 111.452 46.242ZM112.398 43.756C113.263 43.756 113.952 43.47 114.466 42.898C114.979 42.3113 115.236 41.446 115.236 40.302V40.126C115.236 38.9967 115.001 38.1387 114.532 37.552C114.062 36.9653 113.38 36.672 112.486 36.672C111.591 36.672 110.902 36.9727 110.418 37.574C109.948 38.1607 109.714 39.026 109.714 40.17V40.346C109.714 41.4607 109.956 42.3113 110.44 42.898C110.924 43.47 111.576 43.756 112.398 43.756ZM126.729 46.242C124.939 46.242 123.509 45.7213 122.439 44.68C121.295 43.624 120.723 42.194 120.723 40.39V40.214C120.723 38.4247 121.295 36.9727 122.439 35.858C123.553 34.7727 124.954 34.23 126.641 34.23C128.239 34.23 129.545 34.692 130.557 35.616C131.686 36.6427 132.251 38.1313 132.251 40.082V40.962H123.957C124.001 41.93 124.265 42.678 124.749 43.206C125.247 43.7193 125.937 43.976 126.817 43.976C128.195 43.976 128.995 43.4407 129.215 42.37H132.229C132.038 43.6167 131.466 44.5773 130.513 45.252C129.574 45.912 128.313 46.242 126.729 46.242ZM129.149 39.004C129.046 37.288 128.21 36.43 126.641 36.43C125.922 36.43 125.328 36.6573 124.859 37.112C124.404 37.552 124.118 38.1827 124.001 39.004H129.149ZM138.884 46.242C137.329 46.242 136.119 45.912 135.254 45.252C134.389 44.592 133.927 43.6387 133.868 42.392H136.838C136.926 42.9493 137.117 43.36 137.41 43.624C137.703 43.888 138.187 44.02 138.862 44.02C140.065 44.02 140.666 43.602 140.666 42.766C140.666 42.37 140.49 42.0767 140.138 41.886C139.786 41.6807 139.185 41.5193 138.334 41.402C136.779 41.1527 135.694 40.7787 135.078 40.28C134.418 39.7667 134.088 38.9453 134.088 37.816C134.088 36.6867 134.557 35.7847 135.496 35.11C136.303 34.5233 137.351 34.23 138.642 34.23C139.977 34.23 141.055 34.494 141.876 35.022C142.741 35.6087 143.247 36.5327 143.394 37.794H140.468C140.38 37.31 140.197 36.958 139.918 36.738C139.639 36.518 139.221 36.408 138.664 36.408C138.151 36.408 137.747 36.518 137.454 36.738C137.175 36.958 137.036 37.244 137.036 37.596C137.036 37.9627 137.19 38.234 137.498 38.41C137.821 38.586 138.407 38.7327 139.258 38.85C140.769 39.0553 141.876 39.4 142.58 39.884C143.343 40.456 143.724 41.314 143.724 42.458C143.724 43.69 143.299 44.6287 142.448 45.274C141.612 45.9193 140.424 46.242 138.884 46.242ZM146.005 29.28H149.195V39.356L152.891 34.494H156.279L152.099 39.73L156.609 46H153.001L149.195 40.566V46H146.005V29.28Z" fill="white"/>
</svg>
