<svg width="33" height="24" viewBox="0 0 33 24" fill="none" xmlns="http://www.w3.org/2000/svg">
<path d="M20.8431 4.13867H12.1338V19.8626H20.8431V4.13867Z" fill="#FF5F00"/>
<path d="M12.6866 12C12.6853 10.4857 13.0268 8.99085 13.6855 7.62875C14.3441 6.26664 15.3026 5.07294 16.4883 4.138C15.0199 2.97846 13.2565 2.25735 11.3995 2.05711C9.54253 1.85687 7.66693 2.18556 5.9871 3.00563C4.30727 3.8257 2.89098 5.10406 1.90011 6.69458C0.909245 8.2851 0.383789 10.1236 0.383789 12C0.383789 13.8763 0.909245 15.7149 1.90011 17.3054C2.89098 18.8959 4.30727 20.1743 5.9871 20.9943C7.66693 21.8144 9.54253 22.1431 11.3995 21.9429C13.2565 21.7426 15.0199 21.0215 16.4883 19.862C15.3026 18.927 14.3441 17.7333 13.6855 16.3712C13.0268 15.0091 12.6853 13.5143 12.6866 12Z" fill="#EB001B"/>
<path d="M32.5923 12C32.5924 13.8763 32.067 15.7148 31.0761 17.3053C30.0853 18.8959 28.6691 20.1742 26.9893 20.9943C25.3095 21.8144 23.4339 22.1431 21.577 21.9428C19.72 21.7426 17.9566 21.0215 16.4883 19.862C17.673 18.9261 18.6307 17.7322 19.2892 16.3703C19.9477 15.0084 20.2899 13.5141 20.2899 12C20.2899 10.4859 19.9477 8.99156 19.2892 7.62967C18.6307 6.26778 17.673 5.07388 16.4883 4.138C17.9566 2.97845 19.72 2.25735 21.577 2.05711C23.4339 1.85687 25.3095 2.18558 26.9893 3.00565C28.6691 3.82573 30.0853 5.10409 31.0761 6.69461C32.067 8.28513 32.5924 10.1236 32.5923 12Z" fill="#F79E1B"/>
<path d="M31.6432 18.1967V17.8748H31.7724V17.8092H31.4434V17.8748H31.5726V18.1967H31.6432ZM32.282 18.1967V17.8086H32.1812L32.0652 18.0756L31.9491 17.8086H31.8482V18.1967H31.9194V17.904L32.0282 18.1564H32.1021L32.2109 17.9033V18.1967H32.282Z" fill="#F79E1B"/>
</svg>
