<svg width="104" height="24" viewBox="0 0 104 24" fill="none" xmlns="http://www.w3.org/2000/svg">
<path d="M4.18019 9.92613H0V7.47754H11.3643V9.907H7.20426V16.6024H4.17514L4.18019 9.92613Z" fill="white"/>
<path d="M22.995 7.47754V16.5641H20.0668V11.3035L15.0183 16.5976H12.4385V7.47754H15.3666V12.7908L20.4101 7.47754H22.995Z" fill="white"/>
<path d="M28.0395 16.5976H25.1113V7.47754H28.0395V10.8252H32.7447V7.47754H35.6729V16.5641H32.7447V13.2164H28.0395V16.5976Z" fill="white"/>
<path d="M37.7881 16.5976V7.47754H40.7162V9.92613H43.7454C44.4687 9.89061 45.1931 9.97476 45.8859 10.1748C46.5478 10.3902 47.118 10.8031 47.5113 11.3515C47.9045 11.8999 48.0994 12.5542 48.0669 13.2164C48.0923 13.937 47.8554 14.644 47.3957 15.2187C46.9361 15.7934 46.2818 16.2009 45.5426 16.3728C44.9434 16.5238 44.3249 16.5947 43.705 16.5832L37.7881 16.5976ZM40.7162 14.3977H43.2405C43.6299 14.4307 44.0222 14.3851 44.3916 14.2638C44.6073 14.1753 44.791 14.029 44.9201 13.8429C45.0493 13.6569 45.1183 13.4391 45.1186 13.2164C45.1235 12.9944 45.0509 12.7771 44.9122 12.5981C44.7734 12.4191 44.5763 12.2885 44.3512 12.2265C43.9844 12.1246 43.6017 12.0842 43.2203 12.1069H40.696L40.7162 14.3977Z" fill="white"/>
<path d="M52.3432 16.5976H49.415V7.47754H52.3432V10.9209H53.1459L56.6799 7.49667H60.3552L55.6702 11.8534L60.537 16.5976H56.6395L53.1459 13.1542H52.3432V16.5976Z" fill="white"/>
<path d="M72.9159 12.0649C72.9159 14.7813 70.5532 16.8856 66.6355 16.8856C62.7179 16.8856 60.335 14.7813 60.335 12.0649C60.335 9.3485 62.6977 7.24902 66.6406 7.24902C70.5835 7.24902 72.9159 9.35328 72.9159 12.0649ZM69.8464 12.0649C69.8464 10.5776 68.5742 9.48719 66.6355 9.48719C64.6969 9.48719 63.4247 10.5776 63.4247 12.0649C63.4247 13.5522 64.6767 14.6522 66.6406 14.6522C68.6045 14.6522 69.8464 13.557 69.8464 12.0649Z" fill="white"/>
<path d="M88.4651 12.0454C88.4651 14.6471 86.264 16.0053 82.5684 16.0818V17H79.6403V16.0866C75.965 16.01 73.7638 14.6518 73.7638 12.0502C73.7638 9.44859 75.965 7.98039 79.6403 7.90387V7H82.5684V7.91822C86.264 7.95648 88.4651 9.44859 88.4651 12.0454ZM79.6403 9.86944C77.6209 9.94596 76.7323 10.8259 76.7323 12.0454C76.7323 13.2649 77.6209 14.054 79.6403 14.1306V9.86944ZM85.4764 12.0454C85.4764 10.8259 84.6081 9.94596 82.5684 9.86944V14.1306C84.6081 14.054 85.4764 13.2697 85.4764 12.0454Z" fill="white"/>
<path d="M104 12.0454C104 14.6471 101.799 16.0053 98.1033 16.0818V17H95.1751V16.0866C91.4998 16.01 89.2986 14.6518 89.2986 12.0502C89.2986 9.44859 91.4998 7.98039 95.1751 7.90387V7H98.1033V7.91822C101.814 7.95648 104 9.44859 104 12.0454ZM95.1903 9.86944C93.1709 9.94596 92.2823 10.8259 92.2823 12.0454C92.2823 13.2649 93.1709 14.054 95.1903 14.1306V9.86944ZM101.026 12.0454C101.026 10.8259 100.158 9.94596 98.1184 9.86944V14.1306C100.158 14.054 101.026 13.2697 101.026 12.0454Z" fill="white"/>
</svg>
