<svg width="49" height="24" viewBox="0 0 49 24" fill="none" xmlns="http://www.w3.org/2000/svg">
<path d="M18.6018 4.30484L12.19 19.7571H8.00677L4.85148 7.42549C4.65992 6.66594 4.49336 6.38768 3.91077 6.06768C2.95959 5.54645 1.38883 5.05744 0.00683594 4.75393L0.100704 4.30484H6.83444C7.69277 4.30484 8.46437 4.88198 8.65925 5.88037L10.3257 14.8218L14.4441 4.30459H18.6018V4.30484ZM34.9925 14.7121C35.0093 10.6337 29.4094 10.4091 29.4479 8.58723C29.4599 8.03277 29.9825 7.44327 31.1266 7.2928C31.6936 7.21782 33.2559 7.16062 35.0279 7.98433L35.723 4.70755C34.7708 4.35843 33.5457 4.02246 32.0214 4.02246C28.1098 4.02246 25.357 6.12281 25.3338 9.13035C25.3085 11.3549 27.2986 12.5962 28.798 13.3354C30.3404 14.0924 30.858 14.5789 30.8521 15.256C30.8411 16.2925 29.6219 16.7501 28.4824 16.7681C26.4934 16.799 25.3391 16.2245 24.4191 15.7924L23.7018 19.1776C24.6265 19.6061 26.3332 19.9799 28.1026 19.9988C32.2601 19.9988 34.9797 17.9244 34.9925 14.7121ZM45.3215 19.7571H48.9816L45.7868 4.30484H42.4085C41.6489 4.30484 41.0082 4.75161 40.7245 5.4385L34.7861 19.7571H38.9416L39.7665 17.4491H44.8437L45.3215 19.7571ZM40.9059 14.282L42.9888 8.4803L44.1877 14.282H40.9059ZM24.2561 4.30484L20.9837 19.7571H17.0265L20.3001 4.30484H24.2561Z" fill="white"/>
</svg>
