<svg width="24" height="24" viewBox="0 0 24 24" fill="none" xmlns="http://www.w3.org/2000/svg">
<path fill-rule="evenodd" clip-rule="evenodd" d="M22.7227 4.79558C23.0951 5.17236 23.3625 5.64086 23.4982 6.15419C24 8.04887 24 12 24 12C24 12 24 15.9511 23.4982 17.8458C23.3625 18.3591 23.0951 18.8276 22.7227 19.2044C22.3503 19.5812 21.8861 19.853 21.3764 19.9927C19.5 20.5 12 20.5 12 20.5C12 20.5 4.5 20.5 2.62364 19.9927C2.11393 19.853 1.64966 19.5812 1.27729 19.2044C0.904916 18.8276 0.637506 18.3591 0.501818 17.8458C0 15.9511 0 12 0 12C0 12 0 8.04887 0.501818 6.15419C0.637506 5.64086 0.904916 5.17236 1.27729 4.79558C1.64966 4.4188 2.11393 4.14696 2.62364 4.00726C4.5 3.5 12 3.5 12 3.5C12 3.5 19.5 3.5 21.3764 4.00726C21.8861 4.14696 22.3503 4.4188 22.7227 4.79558ZM15.8181 12L9.54541 8.41221V15.5879L15.8181 12Z" fill="white"/>
</svg>
